# xmcd
#
# Track frame offsets: 
#        150
#        12528
#        24164
#        35609
#        58933
#        68701
#        82622
#        95110
#        110671
#        123015
#        132691
#        154174
#        165682
#        182006
#
# Disc length: 2656 seconds
#
# Revision: 1
# Processed by: cddbd v1.5.2PL0 Copyright (c) Steve Scherf et al.
# Submitted via: ExactAudioCopy v1.0b4
#
DISCID=b80a5e0e
DTITLE=Three Kings - Here It Is
DYEAR=2015
DGENRE=Blues
TTITLE0=Mean Things 
TTITLE1=I Know You Want To Rock 
TTITLE2=Voodoo Girl 
TTITLE3=Big Black Train 
TTITLE4=Rockin This Joint 
TTITLE5=Rattles My Bones 
TTITLE6=Monkey Doin' Woman 
TTITLE7=King Bee 
TTITLE8=Gone Gone Gone
TTITLE9=Crowley Crawl 
TTITLE10=Big Legs  
TTITLE11=Lookin' Good  
TTITLE12=Rooster Blues 
TTITLE13=Kings Lament  
EXTD=
EXTT0=
EXTT1=
EXTT2=
EXTT3=
EXTT4=
EXTT5=
EXTT6=
EXTT7=
EXTT8=
EXTT9=
EXTT10=
EXTT11=
EXTT12=
EXTT13=
PLAYORDER=
